<svg width="1536" height="1024" viewBox="0 0 1536 1024" fill="none" xmlns="http://www.w3.org/2000/svg">
<path d="M390.482 442.18C399.329 441.434 409.577 442.29 418.55 441.955C423.25 441.779 428.622 441.794 433.367 441.947C471.524 443.177 528.509 431.696 531.305 486.905C531.709 494.89 531.297 502.835 531.414 510.817C533.16 541.324 516.481 561.137 484.687 562.057C463.495 562.385 441.935 562.117 420.68 562.19C406.382 561.704 391.014 563.365 376.942 560.859C359.387 558.463 341.113 541.277 341.301 522.493C341.497 502.783 336.85 474.372 350.812 458.36C361.532 446.065 375.451 443.451 390.482 442.18ZM471.175 534.06C476.276 532.983 480.901 531.788 483.909 527.078C485.402 524.739 486.167 522.013 486.503 519.276C487.204 513.572 487.256 486.916 485.941 481.754C485.087 478.402 483.329 475.06 480.173 473.381C471.072 468.535 416.891 470.665 402.739 470.705C397.8 471.042 392.511 471.183 388.851 475.058C383.049 481.201 384.087 507.087 384.867 515.96C385.319 521.097 386.971 527.03 391.108 530.433C398.584 536.584 458.797 534.098 471.175 534.06Z" fill="#0D0D0D"/>
<path d="M1019.9 442.166C1038.75 441.619 1058.39 441.89 1077.22 441.972C1106.57 442.099 1157.09 435.424 1160.03 476.747C1161.29 494.385 1147.51 507.791 1131.35 512.098C1118.17 515.099 1100.15 514.059 1086.21 514.051C1063.81 513.926 1041.41 513.959 1019 514.152C1019.39 518.956 1019.53 525.788 1023.32 529.135C1030.84 535.776 1045.46 534.236 1054.88 534.219L1091.19 534.094L1159.32 534.041L1159.31 562.085L1060.39 562.174C1044.33 562.18 1025.21 563.037 1010.14 561.132C992.97 558.961 974.91 541.457 975.225 523.888C975.473 510.458 973.32 485.252 976.148 473.027C977.363 467.547 979.86 462.434 983.43 458.108C992.745 446.852 1006.1 443.554 1019.9 442.166ZM1103.29 485.429C1105.63 485.28 1109.25 485.209 1110.91 483.34C1112.36 481.72 1113 479.985 1112.9 477.795C1112.8 475.819 1112.07 473.957 1110.52 472.675C1105.73 468.724 1045.31 470.601 1034.35 470.672C1025.27 471.297 1018.38 473.676 1019.36 484.69C1020.97 485.932 1094.63 485.435 1103.29 485.429Z" fill="#0D0D0D"/>
<path d="M637.207 442.159C681.038 441.044 727.987 442.072 772.17 441.911C771.533 448.222 771.922 463.654 771.832 470.879C767.175 470.624 762.622 470.598 757.957 470.624C722.145 470.815 686.32 470.489 650.512 470.796C647.277 470.824 645.233 471.081 643.05 473.729C641.822 475.226 641.294 477.177 641.599 479.089C642.727 485.876 649.461 485.121 654.745 485.514C687.329 487.939 730.851 478.264 759.525 495C777.195 505.313 780.945 529.125 769.793 544.765C762.353 555.207 751.335 559.575 738.916 561.754C727.553 562.829 702.973 562.161 691.055 562.156L597.881 562.088L597.844 534.144L680.511 534.061C688.284 534.055 724.634 536.495 728.371 529.678C738.456 511.281 710.028 513.905 700.328 513.942L659.519 514.083C649.934 514.11 641.683 514.524 631.627 513.233C602.95 509.548 586.105 481.969 603.982 456.971C611.21 446.864 625.044 443.44 637.207 442.159Z" fill="#0D0D0D"/>
<path d="M785.857 442.016L885.06 441.987C908.122 441.992 959.452 435.112 962.34 466.377C964.485 489.603 942.412 493.041 928.267 500.284C917.415 505.841 866.895 523.013 862.192 528.699C861.772 531.324 861.607 530.28 862.762 532.643C866.31 535.245 892.83 534.072 898.747 534.072L964.072 534.121L963.937 559.074L963.712 561.421C960.457 563.741 841.927 561.086 828.787 562.099C819.712 562.799 800.835 559.463 795.27 551.366C762.12 503.092 862.792 495.795 884.527 475.486C884.737 473.117 884.985 474.207 883.605 472.139C878.782 469.645 857.79 470.739 851.092 470.708L785.955 470.6C785.715 461.075 785.677 451.544 785.857 442.016Z" fill="#0D0D0D"/>
<path d="M154.267 441.889C182.514 442.934 211.605 441.371 239.923 441.97C265.51 442.511 296.272 438.191 316.198 458.265C321.431 463.509 325.189 470.04 327.091 477.201C329.942 488.047 329.117 505.803 329.113 517.513L329.112 562.069L284.964 562.059L285.031 513.59C285.489 472.957 262.667 469.047 227.7 470.688C218.7 471.111 201.804 467.36 201.013 480.72C200.452 490.221 200.638 499.757 200.658 509.287L200.808 562.066L154.018 562.125C154.932 552.189 154.264 529.274 154.252 518.59L154.267 441.889Z" fill="#0D0D0D"/>
<path d="M1224.44 442.162C1258.24 441.165 1295.84 441.991 1329.92 442.003L1329.86 470.834L1328.51 470.807C1310.05 470.642 1291.59 470.572 1273.13 470.597C1250.83 470.568 1218.07 465.139 1218.02 496.434L1218.04 562.059C1203.03 562.155 1188.02 562.142 1173.02 562.021L1172.95 510.733C1172.89 481.444 1170.36 454.852 1206.01 444.934C1212.41 443.153 1217.87 442.781 1224.44 442.162Z" fill="#0D0D0D"/>
<path d="M542.116 441.962C556.108 442.238 570.969 441.984 585.032 441.987L585.025 562.072L542.004 562.052C542.645 522.503 542.115 481.615 542.116 441.962Z" fill="#0D0D0D"/>
</svg>
