<svg width="1774" height="887" viewBox="0 0 1774 887" fill="none" xmlns="http://www.w3.org/2000/svg">
<g clip-path="url(#clip0_0_1)">
<path d="M0 0H1774V887H0V0Z" fill="black"/>
<path d="M449.338 368.454C459.642 367.229 495.087 368.167 506.865 368.172L557.247 368.104C569.289 368.096 581.083 367.569 593.024 369.451C620.703 373.812 643.224 395.805 645.902 424.061C647.689 440.963 645.435 459.325 646.44 476.138C648.719 514.299 626.051 543.207 587.133 547.599C573.7 549.118 541.015 548.15 526.513 548.161L479.503 548.217C454.37 548.233 433.059 549.594 411.853 533.315C384.732 512.742 389.614 487.517 388.09 459.061C385.588 412.322 394.889 375.279 449.338 368.454Z" fill="#FEFEFE"/>
<path d="M467.938 410.93C499.349 409.533 533.964 411.089 565.496 411.118C587.759 411.14 588.622 434.692 587.425 451.598C585.958 472.327 594.697 498.763 566.252 503.793C534.948 505.247 502.047 503.647 470.269 503.683C440.536 502.646 447.822 470.452 447.041 450.522C446.292 431.396 446.098 415.119 467.938 410.93Z" fill="black"/>
<path d="M1319.59 368.434C1322.73 368.048 1327.39 368.052 1330.6 368.065C1369.46 368.226 1408.34 368 1447.21 368.07C1464.73 368.102 1482.41 373.45 1495.11 385.953C1504.55 395.242 1509.84 407.944 1509.8 421.187C1509.88 435.813 1505.27 447.993 1494.84 458.427C1487.04 466.103 1477.31 471.506 1466.66 474.055C1453.32 477.236 1422.6 476.237 1407.67 476.226L1319.13 476.277C1318.72 509.193 1343.6 504.108 1368.04 504.049L1421.89 503.921L1508.81 503.58L1508.8 548.135L1381.4 548.194C1374.15 548.194 1366.82 548.315 1359.59 548.19C1332.21 547.718 1306.19 551.486 1283 533.622C1257.77 514.185 1258.73 487.21 1259.25 458.336C1259.64 435.409 1256.3 412.612 1271.65 393.322C1284.08 377.658 1300.17 370.986 1319.59 368.434Z" fill="#FEFEFE"/>
<path d="M1337.72 409.105C1369.27 407.319 1406.32 409.609 1438.23 409.409C1452.57 409.32 1459.52 434.347 1434.66 434.941L1319.11 434.932C1318.85 420.402 1323.41 412.794 1337.72 409.105Z" fill="black"/>
<path d="M799.165 368.433C816.738 367.16 844.103 368.114 862.639 368.124L983.297 368.147C983.583 381.838 983.357 396.165 983.34 409.905L868.324 409.804C852.656 409.837 836.69 409.578 821.081 409.622C799.873 409.681 799.689 433.612 821.158 433.893C828.412 433.987 836.093 433.959 843.399 433.933L900.088 433.761C911.661 433.729 928.258 433.083 939.241 435.123C950.329 437.164 960.732 441.933 969.515 449C980.603 457.985 987.55 471.1 988.745 485.319C990.174 500.362 985.523 515.35 975.83 526.943C964.301 540.663 948.475 546.421 931.09 547.962C918.495 549.202 885.034 548.23 871.01 548.232L745.802 548.272L745.78 503.355L862.059 503.321C879.49 503.329 897.472 503.56 914.935 503.089C917.924 502.76 923.485 500.305 924.957 497.636C939.051 472.107 899.664 475.971 887.087 475.999L833.634 476.157C819.76 476.201 807.561 476.791 793.199 474.699C753.021 468.846 730.296 426.701 754.454 392.089C764.561 377.607 781.631 370.751 799.165 368.433Z" fill="#FEFEFE"/>
<path d="M1005.52 368.172L1130.22 368.117C1153.37 368.102 1176.41 368.049 1199.55 368.394C1226.36 368.795 1250.2 391.91 1239.85 419.374C1237.04 426.622 1232.3 432.954 1226.12 437.675C1217.98 443.854 1197.68 452.263 1187.54 456.874C1165.69 466.893 1143.78 476.784 1121.81 486.55C1116.22 489.048 1108.22 491.643 1106.06 497.312C1107.08 501.931 1112.41 502.941 1116.7 503.098C1130.3 503.597 1144.07 503.331 1157.7 503.331L1243.02 503.322L1243 548.002C1232.61 549.391 1214.64 548.288 1203.48 548.281L1129.62 548.28L1078.96 548.274C1058.07 548.269 1037.45 550.481 1020.79 535.2C1012.47 527.531 1007.57 516.85 1007.19 505.543C1006.91 494.288 1011.3 483.418 1019.32 475.519C1036.34 458.854 1098.41 440.485 1120.79 427.823C1126.65 424.512 1143.42 421.245 1141.76 413.032C1136.62 408.024 1103.54 409.978 1094.51 409.959L1005.58 409.996L1005.52 368.172Z" fill="#FEFEFE"/>
<path d="M100.62 368.253L229.85 368.206C270.763 368.197 319.961 361.199 351.2 392.454C359.519 400.749 365.512 411.085 368.578 422.426C372.218 436.439 371.146 463.46 371.124 479.076L370.967 547.46L307.475 547.464L307.456 472.735C308.392 436.679 280.764 411.374 245.623 411.642C232.869 411.203 220.463 412.306 207.663 411.574C193.963 410.79 170.973 411.225 167.981 429.139C165.922 441.463 166.908 458.518 166.926 471.583L166.906 547.443L100.666 547.482L100.62 368.253Z" fill="#FEFEFE"/>
<path d="M1586.46 369.239C1593.52 368.248 1609.98 368.595 1617.49 368.597L1673.33 368.63L1673.41 411.578C1660.94 411.646 1618.76 410.351 1608.88 412.81C1604.99 413.773 1601.42 415.768 1598.57 418.584C1589.82 427.354 1592.29 450.795 1592.32 463.085L1592.42 521.026L1592.39 547.457L1530 547.435L1529.81 466.619C1529.8 454.185 1529.14 430.101 1531.16 418.908C1532.65 410.203 1536.11 401.954 1541.28 394.796C1552.13 379.822 1568.6 372.101 1586.46 369.239Z" fill="#FEFEFE"/>
<path d="M665.251 368.286L725.752 368.291L725.766 547.495L665.214 547.502L665.251 368.286Z" fill="#FEFEFE"/>
</g>
<defs>
<clipPath id="clip0_0_1">
<rect width="1774" height="887" fill="white"/>
</clipPath>
</defs>
</svg>
